<svg id="Layer_1" data-name="Layer 1" xmlns="http://www.w3.org/2000/svg" viewBox="0 0 57.5 49.79"><title>AC</title><path d="M70.4,34.75H29.6a8.36,8.36,0,0,0-8.35,8.35V56.9a8.36,8.36,0,0,0,8.35,8.35H70.4a8.36,8.36,0,0,0,8.35-8.35V43.1A8.36,8.36,0,0,0,70.4,34.75ZM76.25,56.9a5.86,5.86,0,0,1-5.85,5.85H29.6a5.86,5.86,0,0,1-5.85-5.85V43.1a5.86,5.86,0,0,1,5.85-5.85H70.4a5.86,5.86,0,0,1,5.85,5.85Z" transform="translate(-21.25 -34.75)"/><path d="M70,49.75H29a1.25,1.25,0,0,0,0,2.5H70a1.25,1.25,0,0,0,0-2.5Z" transform="translate(-21.25 -34.75)"/><path d="M70,55.75H29a1.25,1.25,0,0,0,0,2.5H70a1.25,1.25,0,0,0,0-2.5Z" transform="translate(-21.25 -34.75)"/><path d="M44,71.52a1.28,1.28,0,1,0-2-1.61h0c-2.21,2.63-1.35,4.65-.71,6.13A4,4,0,0,1,41.76,79a1.25,1.25,0,1,0,2.41.67,6.38,6.38,0,0,0-.58-4.57C43,73.67,42.74,73,44,71.52Z" transform="translate(-21.25 -34.75)"/><path d="M50,75.52a1.28,1.28,0,1,0-2-1.61h0c-2.21,2.63-1.35,4.65-.71,6.13A4,4,0,0,1,47.76,83a1.25,1.25,0,1,0,2.41.67h0a6.38,6.38,0,0,0-.58-4.57C49,77.67,48.74,77,50,75.52Z" transform="translate(-21.25 -34.75)"/><path d="M56,71.52a1.28,1.28,0,1,0-2-1.61h0c-2.21,2.63-1.35,4.65-.71,6.13A4,4,0,0,1,53.76,79a1.25,1.25,0,1,0,2.41.67,6.38,6.38,0,0,0-.58-4.57C55,73.67,54.74,73,56,71.52Z" transform="translate(-21.25 -34.75)"/><circle cx="46.75" cy="9.25" r="2"/></svg>