<svg id="Layer_1" data-name="Layer 1" xmlns="http://www.w3.org/2000/svg" viewBox="0 0 48.75 44.98"><title>CCTV</title><path d="M69.08,52H41.28A5.3,5.3,0,0,1,36,46.69V28.77a1.25,1.25,0,0,1,1.25-1.25H73.13a1.25,1.25,0,0,1,1.25,1.25V46.69A5.3,5.3,0,0,1,69.09,52ZM38.49,30V46.69a2.8,2.8,0,0,0,2.79,2.79h27.8a2.8,2.8,0,0,0,2.79-2.79V30Z" transform="translate(-25.63 -27.5)"/><path d="M36.78,45.16H33.37a2,2,0,0,1-2.13-1.79V36.92a2,2,0,0,1,2.13-1.79h3.41a1.25,1.25,0,0,1,0,2.5h-3v5h3a1.25,1.25,0,0,1,0,2.5Z" transform="translate(-25.63 -27.5)"/><path d="M39.26,30H26.88a1.25,1.25,0,1,1,0-2.5H39.26a1.25,1.25,0,0,1,0,2.5Z" transform="translate(-25.63 -27.5)"/><path d="M71.85,65.33H60.22a1.25,1.25,0,0,1-.92-.4L46.94,51.59a1.25,1.25,0,1,1,1.76-1.78l.07.08,12,12.94H71.85a1.25,1.25,0,0,1,0,2.5Z" transform="translate(-25.63 -27.5)"/><path d="M72.11,72.48a1.25,1.25,0,0,1-1.25-1.25V56.17a1.25,1.25,0,0,1,2.5,0V71.23A1.25,1.25,0,0,1,72.11,72.48Z" transform="translate(-25.63 -27.5)"/></svg>