<svg id="Layer_1" data-name="Layer 1" xmlns="http://www.w3.org/2000/svg" viewBox="0 0 51.23 50.95"><title>Childrens Play Area</title><path d="M74.15,60.36C62.52,60.36,59.33,53,56,45.27c-.64-1.48-1.3-3-2-4.51a15.53,15.53,0,0,0-13.4-8.68h0a1.17,1.17,0,0,1,0-2.33,17.73,17.73,0,0,1,15.4,10c.75,1.55,1.43,3.1,2.08,4.6,3.36,7.73,6,13.84,16.4,13.68h0a1.17,1.17,0,0,1,0,2.33Z" transform="translate(-24.31 -24.58)"/><path d="M67.67,75.53a1.17,1.17,0,0,1-1.17-1.17V58.5a1.17,1.17,0,0,1,2.33,0V74.36A1.17,1.17,0,0,1,67.67,75.53Z" transform="translate(-24.31 -24.58)"/><path d="M40.51,32h-15a1.17,1.17,0,0,1,0-2.33h15a1.17,1.17,0,0,1,0,2.33Z" transform="translate(-24.31 -24.58)"/><path d="M40.92,75.11a1.17,1.17,0,0,1-1.17-1.17V25.64a1.17,1.17,0,0,1,2.33,0V73.95A1.17,1.17,0,0,1,40.92,75.11Z" transform="translate(-24.31 -24.58)"/><path d="M25.48,75.11a1.17,1.17,0,0,1-1.17-1.17V25.64a1.17,1.17,0,0,1,2.33,0V73.95A1.17,1.17,0,0,1,25.48,75.11Z" transform="translate(-24.31 -24.58)"/><path d="M25.49,75.14A1.17,1.17,0,0,1,24.32,74V31.06a1.17,1.17,0,1,1,2.33,0V74A1.17,1.17,0,0,1,25.49,75.14Z" transform="translate(-24.31 -24.58)"/><path d="M40.54,42.48H26.48a1.17,1.17,0,0,1,0-2.33H40.54a1.17,1.17,0,0,1,0,2.33Z" transform="translate(-24.31 -24.58)"/><path d="M40.54,55H26.48a1.17,1.17,0,0,1,0-2.33H40.54A1.17,1.17,0,0,1,40.76,55Z" transform="translate(-24.31 -24.58)"/><path d="M40.54,66.91H26.48a1.17,1.17,0,0,1,0-2.33H40.54a1.17,1.17,0,1,1,.22,2.33Z" transform="translate(-24.31 -24.58)"/></svg>