<svg id="Layer_1" data-name="Layer 1" xmlns="http://www.w3.org/2000/svg" viewBox="0 0 46.34 48.54"><title>Clubhouse</title><path d="M45.68,41.93a1.17,1.17,0,0,1-.6-.17C43,40.49,41.7,37.64,41.7,34.13c0-5,3-8.4,7.39-8.4s7.59,3.78,7.59,8.8A10.31,10.31,0,0,1,54.34,41a1.17,1.17,0,1,1-1.77-1.53l.12-.12a8,8,0,0,0,1.67-4.8c0-3.21-1.81-6.47-5.26-6.47-3.73,0-5.06,3.27-5.06,6.06,0,2.07.59,4.63,2.25,5.63a1.17,1.17,0,0,1-.6,2.17Z" transform="translate(-26.84 -25.73)"/><path d="M36.24,74.27c-.09,0-9.4-.91-9.4-4.18V66.27a4.34,4.34,0,0,1,3.26-4.13h.18l6-.71L36.06,61a8,8,0,0,1-1.31-2.35,3.61,3.61,0,0,1-.22-2.83l3-11.38a4.27,4.27,0,0,1,2.7-3l5.1-1.63A1.18,1.18,0,0,1,46,42.07h0l-5,1.61A2,2,0,0,0,39.8,45l-3,11.52a1.3,1.3,0,0,0,0,1.06A1.18,1.18,0,0,1,37,58a5.92,5.92,0,0,0,1,1.7c.68,1,1.32,1.84,1,2.82a1.8,1.8,0,0,1-1.41,1.09h-.12l-6.73.79a2,2,0,0,0-1.48,1.87v3.64c.79.81,5.26,2,7,2l11.52-2.58a14.58,14.58,0,0,1,4.44,0L63.8,71.72c2.13-.31,6.31-1.6,7-2.39V66.47a2.11,2.11,0,0,0-1.32-1.87l-6.3-.79h-.11a1.92,1.92,0,0,1-1.48-1.13c-.43-1,.27-2.11,1-3.23A12,12,0,0,0,63.47,58a5.87,5.87,0,0,0,.13-1.44l-3-11.3a2,2,0,0,0-1.31-1.42l-6.22-2.41a1.17,1.17,0,0,1,.84-2.18l6.23,2.41a4.31,4.31,0,0,1,2.73,3.07l3,11.38a1.15,1.15,0,0,1,0,.3,7.76,7.76,0,0,1-.26,2.38v.11a13.15,13.15,0,0,1-1,1.8c-.16.25-.38.57-.53.85l5.88.74.22,0a4.41,4.41,0,0,1,3,4.12v3C73.18,72.62,64,74,63.92,74a1.17,1.17,0,0,1-.38,0l-11.86-2.4a12.33,12.33,0,0,0-3.62,0L36.5,74.24Z" transform="translate(-26.84 -25.73)"/></svg>