<svg id="Layer_1" data-name="Layer 1" xmlns="http://www.w3.org/2000/svg" viewBox="0 0 54.51 54.15"><title>Community Center</title><path d="M71.51,77.07h-43a5.78,5.78,0,0,1-5.77-5.77V67.15A1.25,1.25,0,0,1,24,65.9H76a1.25,1.25,0,0,1,1.25,1.25V71.3A5.78,5.78,0,0,1,71.51,77.07ZM25.21,68.4v2.9a3.28,3.28,0,0,0,3.27,3.27h43a3.28,3.28,0,0,0,3.27-3.27V68.4Z" transform="translate(-22.74 -22.92)"/><path d="M69.19,68.4H30.75a1.25,1.25,0,0,1-1.25-1.25V42.27A1.25,1.25,0,0,1,30.73,41H69.19a1.25,1.25,0,0,1,1.25,1.25v24.9A1.25,1.25,0,0,1,69.19,68.4ZM32,65.9H67.94V43.52H32Z" transform="translate(-22.74 -22.92)"/><path d="M43,68.4a1.25,1.25,0,0,1-1.25-1.25V42.27a1.25,1.25,0,0,1,2.5,0V67.15A1.25,1.25,0,0,1,43,68.4Z" transform="translate(-22.74 -22.92)"/><path d="M57,68.4a1.25,1.25,0,0,1-1.25-1.25V42.27a1.25,1.25,0,0,1,2.5,0V67.15A1.25,1.25,0,0,1,57,68.4Z" transform="translate(-22.74 -22.92)"/><path d="M75.53,43.52H24a1.25,1.25,0,0,1-.71-2.28l26-18.09a1.25,1.25,0,0,1,1.44,0l25.52,18.1a1.25,1.25,0,0,1-.72,2.27ZM28,41H71.6L50,25.71Z" transform="translate(-22.74 -22.92)"/></svg>