<svg id="Layer_1" data-name="Layer 1" xmlns="http://www.w3.org/2000/svg" viewBox="0 0 37.5 51.5"><title>Cupboard</title><path d="M59.8,24.25H40.2a9,9,0,0,0-9,9V69.5a1.25,1.25,0,0,0,1.25,1.25H36V74.5a1.25,1.25,0,0,0,2.5,0V70.75h23V74.5a1.25,1.25,0,0,0,2.5,0V70.75h3.5a1.25,1.25,0,0,0,1.25-1.25V33.2A9,9,0,0,0,59.8,24.25Zm-19.6,2.5H59.8a6.46,6.46,0,0,1,6.45,6.45v5H33.75v-5A6.46,6.46,0,0,1,40.2,26.75Zm26.05,28.5H33.75V40.75h32.5Zm-32.5,13V57.75h14.5v10.5Zm17,0V57.75h15.5v10.5Z" transform="translate(-31.25 -24.25)"/><circle cx="10.25" cy="26.25" r="2"/><circle cx="27.25" cy="26.25" r="2"/></svg>