<svg id="Layer_1" data-name="Layer 1" xmlns="http://www.w3.org/2000/svg" viewBox="0 0 60.26 46.5"><title>Dining table</title><path d="M79.76,40.6,75,29.52a4.57,4.57,0,0,0-4.21-2.77H29.19A4.57,4.57,0,0,0,25,29.52L20.24,40.6a4.56,4.56,0,0,0-.3,2.59h0a4.55,4.55,0,0,0,2.86,3.46,4.5,4.5,0,0,0,2.94.11V72A1.25,1.25,0,0,0,27,73.25h6A1.25,1.25,0,0,0,34.25,72V61.25h31.5V72A1.25,1.25,0,0,0,67,73.25h6A1.25,1.25,0,0,0,74.25,72V46.8a4.58,4.58,0,0,0,5.81-3.61h0A4.56,4.56,0,0,0,79.76,40.6Zm-48,30.15h-3.5V45.29a4.93,4.93,0,0,1,3-.87h.52V70.75Zm2.5-12V45.31c.3.2.6.43.91.67A8.16,8.16,0,0,0,46.1,46,5.69,5.69,0,0,1,54,46a8.16,8.16,0,0,0,10.92,0l.89-.67V58.75Zm34,12V44.44h.53a4.93,4.93,0,0,1,3,.87V70.75Zm9.35-28a2.07,2.07,0,0,1-1.31,1.59A2,2,0,0,1,74.24,44a8.15,8.15,0,0,0-10.92,0,5.69,5.69,0,0,1-7.85,0,8.16,8.16,0,0,0-10.92,0,5.69,5.69,0,0,1-7.85,0,8.17,8.17,0,0,0-11,0,2,2,0,0,1-2,.3,2.07,2.07,0,0,1-1.31-1.59h0a2.06,2.06,0,0,1,.14-1.15l4.75-11.07a2.07,2.07,0,0,1,1.91-1.26H70.81a2.07,2.07,0,0,1,1.91,1.26l4.75,11.08a2.07,2.07,0,0,1,.13,1.19Z" transform="translate(-19.87 -26.75)"/></svg>