<svg id="Layer_1" data-name="Layer 1" xmlns="http://www.w3.org/2000/svg" viewBox="0 0 47.5 47.5"><title>Elevator</title><path d="M72.5,26.25h-45a1.25,1.25,0,0,0-1.25,1.25v45a1.25,1.25,0,0,0,1.25,1.25H38a1.25,1.25,0,0,0,1.25-1.25V70.35h21.5V72.5A1.25,1.25,0,0,0,62,73.75H72.5a1.25,1.25,0,0,0,1.25-1.25v-45A1.25,1.25,0,0,0,72.5,26.25Zm-33.25,17h9.5v24.6h-9.5Zm12,24.6V43.25h9.5v24.6Zm20,3.4h-8V41.94A1.25,1.25,0,0,0,62,40.69H38a1.25,1.25,0,0,0-1.25,1.25V71.25h-8V28.75h42.5Z" transform="translate(-26.25 -26.25)"/><path d="M41.39,37.24a1.25,1.25,0,0,0,.88-.37l1.45-1.45,1.45,1.45a1.25,1.25,0,0,0,1.77-1.77L44.6,32.77a1.29,1.29,0,0,0-1.77,0L40.5,35.1a1.25,1.25,0,0,0,.88,2.13Z" transform="translate(-26.25 -26.25)"/><path d="M55.4,37.23a1.25,1.25,0,0,0,1.77,0h0L59.5,34.9a1.25,1.25,0,0,0-1.77-1.77l-1.45,1.45-1.45-1.45a1.25,1.25,0,0,0-1.77,1.77Z" transform="translate(-26.25 -26.25)"/><circle cx="40.75" cy="22.95" r="1.2"/><circle cx="40.75" cy="28.55" r="1.2"/></svg>