<svg id="Layer_1" data-name="Layer 1" xmlns="http://www.w3.org/2000/svg" viewBox="0 0 51.64 44.25"><title>Favorite filled</title><path d="M68.6,29.3A13.13,13.13,0,0,0,57,29.1a12.56,12.56,0,0,0-5.8,5.3,1.32,1.32,0,0,1-2.3,0,12.53,12.53,0,0,0-5.4-5,13.1,13.1,0,0,0-13.5.8,13.31,13.31,0,0,0-1.9,20.4c1,1.1.9,1.1,1.9,2.2l1.3,1.4a57.61,57.61,0,0,1,4.2-4.8c7.6-7.6,14.5-9.9,15.9-10.1a5.72,5.72,0,0,1,1.4-.1A8,8,0,0,1,58.7,42a10.64,10.64,0,0,1,3,4.5A5.52,5.52,0,0,1,60,51.9a37.62,37.62,0,0,1-6.2,4.4,5,5,0,0,1-2.7.7,5.62,5.62,0,0,1-3.2-1.1,11.32,11.32,0,0,1-1.3-1,.1.1,0,0,1-.1-.1,15.69,15.69,0,0,0-1.8,1.6,7.17,7.17,0,0,0-1.1,9.1,25.58,25.58,0,0,0,3.6,4.3,4,4,0,0,0,5.6.1A250,250,0,0,0,71.9,50.6,13.3,13.3,0,0,0,68.6,29.3Z" transform="translate(-24.2 -27.85)"/><path d="M38.1,51.8c-6.9,6.9-9,13.1-9.1,13.9S28.6,68,30.6,70c2.4,2.4,3.6,2.6,5,1.3a34.39,34.39,0,0,0,3.8-5.5,2.11,2.11,0,0,0-.1-2.3c-.4-.7-1-1.4-1.5-2.1a2.08,2.08,0,0,1-.1-2.5,26.83,26.83,0,0,1,3.4-4.2,25.56,25.56,0,0,1,4.2-3.4,2.09,2.09,0,0,1,2.5.1c.7.5,1.4,1.1,2.1,1.5a2.1,2.1,0,0,0,2.3.1,34.39,34.39,0,0,0,5.5-3.8c1.3-1.3,1.1-2.6-1.3-5-2-2-3.4-1.8-4.3-1.6S45,44.9,38.1,51.8Z" transform="translate(-24.2 -27.85)"/></svg>