<svg id="Layer_1" data-name="Layer 1" xmlns="http://www.w3.org/2000/svg" viewBox="0 0 47.66 48.68"><title>Garden 2</title><path d="M48.92,49.08A4.94,4.94,0,1,1,53,46.86h0A4.9,4.9,0,0,1,49.92,49,5,5,0,0,1,48.92,49.08Zm0-7.54a2.65,2.65,0,0,0-.53,0,2.6,2.6,0,1,0,2.7,4h0a2.6,2.6,0,0,0-2.17-4Z" transform="translate(-26.18 -25.58)"/><path d="M48.73,62.55A9,9,0,0,1,40.06,56a9,9,0,0,1-6.28-16.4A9,9,0,0,1,46.41,27.23a8.87,8.87,0,0,1,1.7,1.45,9,9,0,0,1,15,9.6,8.65,8.65,0,0,1,.86.5,9,9,0,0,1,2.6,12.46l0,.06h0a9.07,9.07,0,0,1-8.92,4,9,9,0,0,1-7,7.11A9.13,9.13,0,0,1,48.73,62.55ZM41,53.43a1.17,1.17,0,0,1,1.16,1,6.7,6.7,0,0,0,13.33-.65A1.17,1.17,0,0,1,57,52.71,6.73,6.73,0,0,0,64.58,50h0a6.7,6.7,0,0,0-1.9-9.28h0A6.54,6.54,0,0,0,61.11,40a1.17,1.17,0,0,1-.63-1.71,6.7,6.7,0,0,0-11.33-7.14l-.07.12a1.06,1.06,0,0,1-1,.53,1.17,1.17,0,0,1-1-.55,6.7,6.7,0,1,0-10.75,7.94A1.17,1.17,0,0,1,36,41a6.69,6.69,0,0,0,4.66,12.5A1.17,1.17,0,0,1,41,53.43Z" transform="translate(-26.18 -25.58)"/><path d="M48.88,73.72a1.17,1.17,0,0,1-1.17-1.17V61.36a1.17,1.17,0,0,1,2.33,0V72.55A1.17,1.17,0,0,1,48.88,73.72Z" transform="translate(-26.18 -25.58)"/><path d="M52.43,74.26A27.57,27.57,0,0,1,49,74a1.17,1.17,0,0,1-1-1.32v0c0-.16,2.63-15.46,22.14-15.09h.1l2.59.28a1.17,1.17,0,0,1,1,1.55C73.69,59.6,68.25,74.26,52.43,74.26Zm-1.88-2.41c12.85,1,18.64-8.21,20.4-11.82l-1-.1C62.59,59.83,57,62,53.43,66.43A16.35,16.35,0,0,0,50.55,71.85Z" transform="translate(-26.18 -25.58)"/><path d="M49.09,74a1.15,1.15,0,0,1-.27,0h-.29C29.67,74,26.24,59.38,26.21,59.23a1.17,1.17,0,0,1,.89-1.39l.11,0C44,55.7,49.2,69.3,50.08,72.1a1.17,1.17,0,0,1-.5,1.83l-.21.07A1.18,1.18,0,0,1,49.09,74ZM28.89,60c1.19,3.19,5.49,11.25,18.59,11.67C46.09,68,41.41,59.07,28.89,60Z" transform="translate(-26.18 -25.58)"/></svg>