<svg id="Layer_1" data-name="Layer 1" xmlns="http://www.w3.org/2000/svg" viewBox="0 0 60.5 56.51"><title>Gas pipeline</title><path d="M37,69.75H33.75V59.41a3.66,3.66,0,0,1,3.66-3.66H62.59a3.66,3.66,0,0,1,3.66,3.66V69.75H63a1.25,1.25,0,0,0,0,2.5H79a1.25,1.25,0,0,0,0-2.5H76.25V57.94A13.2,13.2,0,0,0,63.06,44.75H54.25V41.32a10.25,10.25,0,1,0-8.5,0v3.43H36.94A13.2,13.2,0,0,0,23.75,57.94V69.75H21a1.25,1.25,0,0,0,0,2.5H37a1.25,1.25,0,0,0,0-2.5ZM42.25,32A7.75,7.75,0,1,1,50,39.75,7.75,7.75,0,0,1,42.25,32Zm6,10.09a9.61,9.61,0,0,0,3.5,0v2.66h-3.5Zm-22,15.85A10.7,10.7,0,0,1,36.94,47.25H63.06A10.7,10.7,0,0,1,73.75,57.94V69.75h-5V59.41a6.16,6.16,0,0,0-6.16-6.16H37.41a6.16,6.16,0,0,0-6.16,6.16V69.75h-5Z" transform="translate(-19.75 -21.74)"/><path d="M37,75.75H21a1.25,1.25,0,0,0,0,2.5H37a1.25,1.25,0,0,0,0-2.5Z" transform="translate(-19.75 -21.74)"/><path d="M79,75.75H63a1.25,1.25,0,0,0,0,2.5H79a1.25,1.25,0,0,0,0-2.5Z" transform="translate(-19.75 -21.74)"/><circle cx="30.25" cy="10.26" r="3"/></svg>