<svg id="Layer_1" data-name="Layer 1" xmlns="http://www.w3.org/2000/svg" viewBox="0 0 37.6 44.5"><title>Login fill</title><path d="M50,49.2A10.82,10.82,0,0,0,60.8,38.4,10.65,10.65,0,0,0,50,27.8,10.82,10.82,0,0,0,39.2,38.6,10.65,10.65,0,0,0,50,49.2Z" transform="translate(-31.5 -27.8)"/><path d="M59.7,48.5c-3.3,3.3-12.5,7.1-19.4.1a19.11,19.11,0,0,0-8.8,15.9v1.4a1.38,1.38,0,0,0,.6,1.1,33.9,33.9,0,0,0,36.4,0,1.15,1.15,0,0,0,.6-1.1V64.5A19.85,19.85,0,0,0,59.7,48.5Z" transform="translate(-31.5 -27.8)"/></svg>