<svg id="Layer_1" data-name="Layer 1" xmlns="http://www.w3.org/2000/svg" viewBox="0 0 35.83 51.53"><title>Network</title><path d="M62.2,62.59a1.29,1.29,0,0,0-.11-.28L57.36,50.58a1.25,1.25,0,0,0-.24-.59l-5.35-13.3a2.43,2.43,0,0,0,.8-1.79,2.53,2.53,0,1,0-5.06,0,2.43,2.43,0,0,0,.79,1.79L40.47,56.13a1.25,1.25,0,0,0-.19.46L33.27,74a1.25,1.25,0,0,0,1.66,1.61l25.38-11,4.18,10.37A1.25,1.25,0,1,0,66.8,74ZM50,39.08l3.64,9-6.06-3Zm-3.36,8.33,6.44,3.22-9.3,3.88Zm-10,24.7,5.54-13.75L57.42,63.1Zm8.44-15.46L55.4,52.39l3.44,8.54Z" transform="translate(-32.09 -24.27)"/><path d="M65.42,34.91a11.15,11.15,0,0,1-3.91,8.45,1.25,1.25,0,0,0,1.65,1.88,13.58,13.58,0,0,0,0-20.64,1.25,1.25,0,0,0-1.65,1.88A11.15,11.15,0,0,1,65.42,34.91Z" transform="translate(-32.09 -24.27)"/><path d="M60.3,34.91a6.51,6.51,0,0,1-2.38,5,1.25,1.25,0,1,0,1.61,1.92,8.9,8.9,0,0,0,0-13.8,1.25,1.25,0,0,0-1.61,1.92A6.51,6.51,0,0,1,60.3,34.91Z" transform="translate(-32.09 -24.27)"/><path d="M54.38,36.35a1.25,1.25,0,0,0,1.34,2.11l.06,0a4.2,4.2,0,0,0,0-7,1.25,1.25,0,0,0-1.46,2l.06,0a1.7,1.7,0,0,1,0,2.89Z" transform="translate(-32.09 -24.27)"/><path d="M36.84,45.23a1.25,1.25,0,0,0,1.65-1.88,11.08,11.08,0,0,1,0-16.89,1.25,1.25,0,0,0-1.65-1.88,13.58,13.58,0,0,0,0,20.64Z" transform="translate(-32.09 -24.27)"/><path d="M40.48,41.8a1.25,1.25,0,1,0,1.61-1.92,6.39,6.39,0,0,1,0-10A1.25,1.25,0,0,0,40.48,28a8.9,8.9,0,0,0,0,13.8Z" transform="translate(-32.09 -24.27)"/><path d="M44.22,38.42a1.25,1.25,0,0,0,1.46-2l-.06,0a1.7,1.7,0,0,1,0-2.89,1.25,1.25,0,1,0-1.34-2.11l-.06,0a4.2,4.2,0,0,0,0,7Z" transform="translate(-32.09 -24.27)"/></svg>