<svg id="Layer_1" data-name="Layer 1" xmlns="http://www.w3.org/2000/svg" viewBox="0 0 39.48 49"><title>Notification</title><path d="M56,66.2a1.11,1.11,0,0,0-1.1,1.1,4.9,4.9,0,0,1-9.8,0,1.1,1.1,0,0,0-2.2,0,7.1,7.1,0,1,0,14.2,0A1.11,1.11,0,0,0,56,66.2Z" transform="translate(-30.1 -25.4)"/><path d="M68.5,56a3.8,3.8,0,0,1-3.8-3.8V46.1a15.08,15.08,0,0,0-10-14.3V30.2a4.8,4.8,0,0,0-4.8-4.8,4.74,4.74,0,0,0-4.8,4.8v1.5a14.79,14.79,0,0,0-10,14v6.5A3.8,3.8,0,0,1,31.3,56a1.22,1.22,0,0,0-1.2,1.2v6a1.22,1.22,0,0,0,1.2,1.2h37a1.22,1.22,0,0,0,1.2-1.2v-6C69.8,56.6,69.2,56,68.5,56Zm-1.3,6H32.8V58.4a6.32,6.32,0,0,0,5-6.1V45.8A12.19,12.19,0,0,1,46.9,34a1.2,1.2,0,0,0,.9-1.2V30.3a2.2,2.2,0,0,1,4.4,0v2.5a1.2,1.2,0,0,0,.9,1.2,12.69,12.69,0,0,1,9.1,12.2v6.1a6.32,6.32,0,0,0,5,6.1Z" transform="translate(-30.1 -25.4)"/><path d="M50,35.9a8.81,8.81,0,0,0-8.8,8.8,1.22,1.22,0,0,0,1.2,1.2,1.29,1.29,0,0,0,1.2-1.2,6.23,6.23,0,0,1,6.2-6.2A1.22,1.22,0,0,0,51,37.3C51,36.7,50.7,35.9,50,35.9Z" transform="translate(-30.1 -25.4)"/></svg>