<svg id="Layer_1" data-name="Layer 1" xmlns="http://www.w3.org/2000/svg" viewBox="0 0 39.48 49"><title>Notification filled</title><path d="M44,67.3a1,1,0,0,0-1,1.1,7.08,7.08,0,0,0,14,0,1,1,0,0,0-1-1.1Z" transform="translate(-30.1 -25.4)"/><path d="M68.5,56a3.8,3.8,0,0,1-3.8-3.8V46.1a15.08,15.08,0,0,0-10-14.3V30.2a4.8,4.8,0,0,0-4.8-4.8,4.74,4.74,0,0,0-4.8,4.8v1.5a14.79,14.79,0,0,0-10,14v6.5A3.8,3.8,0,0,1,31.3,56a1.22,1.22,0,0,0-1.2,1.2v6a1.22,1.22,0,0,0,1.2,1.2h37a1.22,1.22,0,0,0,1.2-1.2v-6C69.8,56.6,69.2,56,68.5,56ZM49.8,38.5a6.23,6.23,0,0,0-6.2,6.2,1.29,1.29,0,0,1-1.2,1.2,1.22,1.22,0,0,1-1.2-1.2A8.81,8.81,0,0,1,50,35.9c.7,0,1,.8,1,1.4A1.22,1.22,0,0,1,49.8,38.5Z" transform="translate(-30.1 -25.4)"/></svg>