<svg id="Layer_1" data-name="Layer 1" xmlns="http://www.w3.org/2000/svg" viewBox="0 0 55.12 48.32"><title>Pet</title><path d="M75.54,41.62l-4-6.42a5.74,5.74,0,0,0-4.92-2.74h0A5.74,5.74,0,0,0,62.69,34L61,31.61a13.41,13.41,0,0,0-22,0L37.31,34a5.74,5.74,0,0,0-3.92-1.57h0a5.74,5.74,0,0,0-4.92,2.74l-4,6.42a13.36,13.36,0,0,0-.72,12.8L26.9,61a3.24,3.24,0,0,0,3,1.88h0a3.25,3.25,0,0,0,3-2l1.76-4,2.15,3.1a6.91,6.91,0,0,0,.79,8.79,7,7,0,0,0,2.79,1.68A7.28,7.28,0,0,0,42.6,71a7.39,7.39,0,0,0,1.54-.18l.35.5a6.71,6.71,0,0,0,11,0l.35-.5A7.39,7.39,0,0,0,57.4,71a7.28,7.28,0,0,0,2.26-.36A7,7,0,0,0,62.45,69a6.91,6.91,0,0,0,.79-8.79L65.38,57l1.76,4a3.25,3.25,0,0,0,3,2h0a3.25,3.25,0,0,0,3-1.87l3.15-6.65A13.36,13.36,0,0,0,75.54,41.62ZM53.46,69.85a4.21,4.21,0,0,1-6.91,0h0A7.94,7.94,0,0,0,50,65.51v0a7.94,7.94,0,0,0,3.44,4.3Zm-3.22-9.19a.33.33,0,0,1-.47,0h0l-2.6-2.6a.47.47,0,0,1,.16-.76,7.3,7.3,0,0,1,5.35,0,.47.47,0,0,1,.16.76ZM74,53.35,70.85,60a.73.73,0,0,1-.71.45.76.76,0,0,1-.7-.46l-2.94-6.6a7.94,7.94,0,0,1,1.06-8.21,1.27,1.27,0,1,0-2-1.56h0A10.43,10.43,0,0,0,64.2,54.35L61.66,58,58.9,54.41a1.26,1.26,0,1,0-2,1.52l4.15,5.43a4.42,4.42,0,0,1-.38,5.79,4.52,4.52,0,0,1-1.79,1.07,5.24,5.24,0,0,1-6.48-3.49l-.69-2.07a2.78,2.78,0,0,0,.28-.23l2.6-2.6a3,3,0,0,0-1-4.86h0a9.78,9.78,0,0,0-7.18,0,3,3,0,0,0-1,4.86l2.6,2.6a2.78,2.78,0,0,0,.28.23l-.69,2.07a5.24,5.24,0,0,1-6.48,3.49,4.51,4.51,0,0,1-1.8-1.07,4.42,4.42,0,0,1-.38-5.79l4.15-5.43a1.26,1.26,0,1,0-2-1.52h0L38.34,58,35.8,54.35a10.43,10.43,0,0,0-1.41-10.73,1.27,1.27,0,1,0-2,1.56h0a7.94,7.94,0,0,1,1.06,8.21L30.57,60a.76.76,0,0,1-.7.46.73.73,0,0,1-.71-.45L26,53.35a10.87,10.87,0,0,1,.58-10.41l4-6.42A3.26,3.26,0,0,1,33.35,35h0a3.26,3.26,0,0,1,2.79,1.6L37.56,39a1.25,1.25,0,0,0,2.18-1.22l0-.07-.88-1.46L41,33a10.91,10.91,0,0,1,18,0l2.17,3.13-.88,1.46a1.25,1.25,0,1,0,2.1,1.36l0-.07,1.42-2.37A3.26,3.26,0,0,1,66.62,35h0a3.26,3.26,0,0,1,2.79,1.56l4,6.42A10.87,10.87,0,0,1,74,53.35Z" transform="translate(-22.45 -25.87)"/><circle cx="21.64" cy="19.85" r="1.75"/><circle cx="33.46" cy="19.85" r="1.75"/></svg>