<svg id="Layer_1" data-name="Layer 1" xmlns="http://www.w3.org/2000/svg" viewBox="0 0 54.91 58.42"><title>Playground</title><path d="M76.31,37.53l-34.44-.18V32.14h1.76A1.25,1.25,0,0,0,44.5,30l-9.85-9A1.25,1.25,0,0,0,33,21L23,29.87A1.25,1.25,0,0,0,23.85,32h1.76l-.07,12.6-.07,13.79L25.4,72.18v5.68a1.25,1.25,0,0,0,2.5,0V73.43H39.18v4.43a1.25,1.25,0,0,0,2.5,0V72.18l.07-13.79.07-13.79V39.77h6.83l-.06,11.86a5.31,5.31,0,1,0,2.5,0l.06-11.86H59.6l-.1,20a5.31,5.31,0,1,0,2.5,0l.1-20h7.23l-.2,38.09a1.25,1.25,0,0,0,2.5,0L71.87,40H76.3a1.25,1.25,0,0,0,0-2.5ZM28,57.15V45.86l11.29.06-.06,11.29Zm-.1,13.79L28,59.65l11.29.06L39.19,71Zm5.89-47.33,6.62,6H27.11Zm5.6,8.52-.06,11.29H28l.06-11.29ZM52.65,56.91a2.81,2.81,0,1,1-2.8-2.82h0A2.81,2.81,0,0,1,52.65,56.91Zm10.91,8.17a2.81,2.81,0,1,1-2.8-2.82h0A2.81,2.81,0,0,1,63.56,65.08Z" transform="translate(-22.64 -20.69)"/></svg>