<svg id="Layer_1" data-name="Layer 1" xmlns="http://www.w3.org/2000/svg" viewBox="0 0 45.16 48.18"><title>Security</title><path d="M50,74.09a3.35,3.35,0,0,1-.87-.11C39.2,71.31,32.31,63.63,29.2,51.79A58,58,0,0,1,27.5,34.5a1.25,1.25,0,0,1,1.21-1.14c9.29-.27,20.52-7.19,20.63-7.26a1.25,1.25,0,0,1,1.32,0c.11.07,11.35,7,20.64,7.26a1.25,1.25,0,0,1,1.21,1.17c.09,1.36,2,33.08-21.64,39.44A3.34,3.34,0,0,1,50,74.09ZM29.94,35.8c-.18,5.51.12,30.46,19.84,35.76a.86.86,0,0,0,.44,0c19.64-5.28,20-30.15,19.85-35.76-8.42-.66-17.55-5.7-20.07-7.18C47.49,30.1,38.36,35.14,29.94,35.8Z" transform="translate(-27.42 -25.91)"/><path d="M55.36,59a1.25,1.25,0,0,1-.56-.13L50,56.45l-4.8,2.41a1.25,1.25,0,0,1-1.79-1.34l.9-5L40.47,49a1.25,1.25,0,0,1,.68-2.15l5.36-.8,2.38-4.61a1.25,1.25,0,0,1,2.22,0L53.5,46l5.35.74a1.25,1.25,0,0,1,.68,2.15l-3.84,3.57.9,5A1.25,1.25,0,0,1,55.36,59ZM50,53.8a1.25,1.25,0,0,1,.56.13l3.13,1.57-.58-3.24a1.25,1.25,0,0,1,.38-1.14l2.41-2.25-3.39-.47a1.25,1.25,0,0,1-.94-.67l-1.57-3-1.57,3a1.25,1.25,0,0,1-.94.67l-3.39.47,2.41,2.25a1.25,1.25,0,0,1,.38,1.14l-.58,3.24,3.13-1.57A1.25,1.25,0,0,1,50,53.8Z" transform="translate(-27.42 -25.91)"/></svg>