<svg id="Layer_1" data-name="Layer 1" xmlns="http://www.w3.org/2000/svg" viewBox="0 0 44 44"><title>Twitter</title><path d="M50,72A22,22,0,1,1,72,50,22,22,0,0,1,50,72Zm0-41.12A19.13,19.13,0,1,0,69.13,50h0A19.16,19.16,0,0,0,50,30.87Z" transform="translate(-28 -28)"/><path d="M59.48,44.53a7.23,7.23,0,0,1-2.08.57,3.63,3.63,0,0,0,1.59-2,7.24,7.24,0,0,1-2.3.88,3.62,3.62,0,0,0-6.17,3.3,10.27,10.27,0,0,1-7.46-3.78,3.62,3.62,0,0,0,1.12,4.83,3.6,3.6,0,0,1-1.64-.45h0a3.62,3.62,0,0,0,2.9,3.55,3.61,3.61,0,0,1-1.63.06A3.62,3.62,0,0,0,47.21,54a7.26,7.26,0,0,1-4.49,1.55,7.34,7.34,0,0,1-.86,0A10.29,10.29,0,0,0,57.7,46.83v-.47A7.34,7.34,0,0,0,59.48,44.53Z" transform="translate(-28 -28)"/></svg>