<svg id="Layer_1" data-name="Layer 1" xmlns="http://www.w3.org/2000/svg" viewBox="0 0 51.7 51.7"><title>Vastu</title><path d="M50,75.85A25.85,25.85,0,1,1,75.85,50h0A25.88,25.88,0,0,1,50,75.85Zm0-49.36A23.51,23.51,0,1,0,73.51,50,23.51,23.51,0,0,0,50,26.49Z" transform="translate(-24.15 -24.15)"/><path d="M50,63.1a1.17,1.17,0,0,1-1.17-1.17V38.06a1.17,1.17,0,0,1,2.33,0V61.94A1.17,1.17,0,0,1,50,63.1Z" transform="translate(-24.15 -24.15)"/><path d="M61.13,51.17H38.87a1.17,1.17,0,0,1,0-2.33H61.13a1.17,1.17,0,0,1,0,2.33Z" transform="translate(-24.15 -24.15)"/><path d="M43.92,57.24a1.17,1.17,0,0,1-.83-2L55.25,43.1a1.17,1.17,0,0,1,1.65,1.65L44.75,56.9A1.16,1.16,0,0,1,43.92,57.24Z" transform="translate(-24.15 -24.15)"/><path d="M56.08,57.24a1.16,1.16,0,0,1-.83-.34L43.1,44.75a1.17,1.17,0,0,1,1.65-1.65L56.9,55.25a1.17,1.17,0,0,1-.83,2Z" transform="translate(-24.15 -24.15)"/><circle cx="25.85" cy="6.82" r="2.05"/><circle cx="25.85" cy="44.88" r="2.05"/><circle cx="6.82" cy="25.85" r="2.05"/><circle cx="44.88" cy="25.85" r="2.05"/></svg>