<svg id="Layer_1" data-name="Layer 1" xmlns="http://www.w3.org/2000/svg" viewBox="0 0 53.33 52.01"><title>Visitors Parking</title><path d="M65.36,71.34H34.55a4.43,4.43,0,0,1-4.42-4.42V53.34a1.17,1.17,0,0,1,1.17-1.17H68.61a1.17,1.17,0,0,1,1.17,1.17V66.92A4.43,4.43,0,0,1,65.36,71.34ZM32.46,54.5V66.92A2.09,2.09,0,0,0,34.55,69H65.36a2.09,2.09,0,0,0,2.09-2.09V54.5Z" transform="translate(-23.3 -23.99)"/><path d="M38.06,76h-1A3.14,3.14,0,0,1,34,72.84V70.51a1.17,1.17,0,0,1,2.33,0v2.33a.81.81,0,0,0,.77.84h1a.81.81,0,0,0,.77-.84V70.51a1.17,1.17,0,0,1,2.33,0v2.33A3.14,3.14,0,0,1,38.08,76Z" transform="translate(-23.3 -23.99)"/><path d="M63,76H62a3.14,3.14,0,0,1-3.1-3.17V70.51a1.17,1.17,0,0,1,2.33,0v2.33a.81.81,0,0,0,.77.84h1a.81.81,0,0,0,.77-.84V70.51a1.17,1.17,0,0,1,2.33,0v2.33A3.14,3.14,0,0,1,63,76Z" transform="translate(-23.3 -23.99)"/><circle cx="16.65" cy="37.76" r="2.31"/><circle cx="36.75" cy="37.76" r="2.31"/><path d="M34.93,54.36a1.17,1.17,0,0,1-1.09-1.59l4.07-10.5A1.17,1.17,0,0,1,39,41.53H60.42a1.17,1.17,0,0,1,1.06.69l4.7,10.42a1.18,1.18,0,0,1-2.13,1l-4.38-9.73H39.8L36,53.61A1.17,1.17,0,0,1,34.93,54.36Z" transform="translate(-23.3 -23.99)"/><path d="M75.46,44.24a1.16,1.16,0,0,1-.67-.21L50,26.59,25.21,44a1.17,1.17,0,0,1-1.49-1.81l.15-.1L49.33,24.2a1.16,1.16,0,0,1,1.34,0L76.14,42.12a1.17,1.17,0,0,1-.67,2.12Z" transform="translate(-23.3 -23.99)"/></svg>