<svg id="Layer_1" data-name="Layer 1" xmlns="http://www.w3.org/2000/svg" viewBox="0 0 60.2 59.38"><title>Water supply</title><path d="M78.54,63.79a1.25,1.25,0,0,0,1.25-1.25v-8.7A10.83,10.83,0,0,0,69,43H61.57a15.23,15.23,0,0,0-11-8.83V26.81h4.25a1.25,1.25,0,0,0,1.25-1.25v-4a1.25,1.25,0,0,0-1.25-1.25h-15a1.25,1.25,0,0,0-1.25,1.25v4a1.25,1.25,0,0,0,1.25,1.25H44.1v7.53A15.24,15.24,0,0,0,33.78,43H21.15a1.25,1.25,0,0,0-1.25,1.25v9.56a1.25,1.25,0,0,0,1.25,1.25H33.78a15.14,15.14,0,0,0,27.79,0H67a.73.73,0,0,1,.73.73h0V62.5a1.25,1.25,0,0,0,1.21,1.29h9.6Zm-37.45-41H53.6v1.5H41.1Zm7,4v6.5H46.6v-6.5ZM67,52.59H60.73a1.25,1.25,0,0,0-1.17.82,12.64,12.64,0,0,1-23.75,0,1.25,1.25,0,0,0-1.17-.82H22.4V45.53H34.62a1.25,1.25,0,0,0,1.17-.82,12.64,12.64,0,0,1,23.75,0,1.25,1.25,0,0,0,1.17.82H69a8.32,8.32,0,0,1,8.32,8.31v7.45H70.23V55.83A3.24,3.24,0,0,0,67,52.59Z" transform="translate(-19.9 -20.31)"/><circle cx="6.95" cy="28.75" r="1.5"/><circle cx="11.95" cy="28.75" r="1.5"/><path d="M75.21,66.28a1.25,1.25,0,0,0-1.72,0c-.82.77-4.89,4.78-4.89,7.66a5.75,5.75,0,0,0,11.5,0C80.1,71.06,76,67.05,75.21,66.28Zm-.86,10.91a3.25,3.25,0,0,1-3.25-3.25h0c0-1.11,1.72-3.35,3.25-5,1.53,1.62,3.25,3.87,3.25,5a3.25,3.25,0,0,1-3.25,3.25Z" transform="translate(-19.9 -20.31)"/></svg>