<svg id="Layer_1" data-name="Layer 1" xmlns="http://www.w3.org/2000/svg" viewBox="0 0 52.5 45.56"><title>Balcony</title><path d="M75,59.41H66V51.79a6.3,6.3,0,0,0,0-12.35V29.72h5.35a1.25,1.25,0,0,0,0-2.5H28.64a1.25,1.25,0,0,0,0,2.5H34v9.72a6.3,6.3,0,0,0,0,12.35v7.62H25a1.25,1.25,0,0,0-1.25,1.25V71.53A1.25,1.25,0,0,0,25,72.78H75a1.25,1.25,0,0,0,1.25-1.25V60.66A1.25,1.25,0,0,0,75,59.41ZM41.54,45.62a6.31,6.31,0,0,0-5-6.17V29.72H48.75v9.72a6.3,6.3,0,0,0,0,12.35v7.62H36.49V51.79A6.31,6.31,0,0,0,41.54,45.62ZM50,49.42a3.8,3.8,0,1,1,3.8-3.8h0A3.8,3.8,0,0,1,50,49.42Zm1.25,2.37a6.3,6.3,0,0,0,0-12.35V29.72H63.51v9.72a6.3,6.3,0,0,0,0,12.35v7.62H51.25Zm17.31-6.17a3.8,3.8,0,1,1-3.8-3.8,3.8,3.8,0,0,1,3.8,3.8Zm-37.11,0a3.8,3.8,0,1,1,3.8,3.8h0a3.8,3.8,0,0,1-3.81-3.79h0Zm42.3,24.66H26.25V61.91h47.5Z" transform="translate(-23.75 -27.22)"/></svg>