<svg id="Layer_1" data-name="Layer 1" xmlns="http://www.w3.org/2000/svg" viewBox="0 0 52.5 57.5"><title>Bed</title><path d="M76.24,62.45a1.24,1.24,0,0,0-.08-.42h0L65.25,35.25V28.68a7.44,7.44,0,0,0-7.43-7.43H42.18a7.44,7.44,0,0,0-7.43,7.43v6.57L23.85,62h0a1.24,1.24,0,0,0-.08.42h0v15a1.25,1.25,0,0,0,2.5,0V74.75h47.5V77.5a1.25,1.25,0,0,0,2.5,0v-15S76.24,62.47,76.24,62.45Zm-39-33.77a4.94,4.94,0,0,1,4.93-4.93H57.82a4.94,4.94,0,0,1,4.93,4.93v5.57H59.63A6.76,6.76,0,0,0,53,28.75H47a6.76,6.76,0,0,0-6.63,5.5H37.25Zm20,6.82A4.26,4.26,0,0,1,53,39.75H47a4.25,4.25,0,0,1,0-8.5h6a4.26,4.26,0,0,1,4.25,4.25Zm-20.4,1.25h3.53A6.76,6.76,0,0,0,47,42.25h6a6.76,6.76,0,0,0,6.63-5.5h3.53l10,24.5H26.86Zm36.91,35.5H26.25v-8.5h47.5Z" transform="translate(-23.77 -21.25)"/></svg>