<svg id="Layer_1" data-name="Layer 1" xmlns="http://www.w3.org/2000/svg" viewBox="0 0 51.65 44.68"><title>Favorite</title><path d="M75.6,39.1A13.49,13.49,0,0,0,67.8,29a13.83,13.83,0,0,0-11.6,0A13,13,0,0,0,50,34.6a12.75,12.75,0,0,0-5.7-5.3A13.84,13.84,0,0,0,28.2,51.4c.6.7,1.1,1.3,1.7,1.9a9,9,0,0,1,.9,1,1.27,1.27,0,0,0,1.9-1.7,9,9,0,0,0-.9-1c-.5-.6-1-1.1-1.7-1.9a11.66,11.66,0,0,1-3.3-8.9,11.49,11.49,0,0,1,4.7-8.4,11.16,11.16,0,0,1,11.8-.9,10.15,10.15,0,0,1,4.9,4.9,2.24,2.24,0,0,0,1.9,1.2h0A2.06,2.06,0,0,0,52,36.4a10.54,10.54,0,0,1,5.3-5.1,11.32,11.32,0,0,1,15.9,8.3,11.78,11.78,0,0,1-3.3,10.5,254.43,254.43,0,0,1-18,18,2.66,2.66,0,0,1-3.7,0c-.7-.7-1.1-1-1.4-1.3s-.7-.6-1.4-1.2a1.27,1.27,0,0,0-1.8,1.8c.8.7,1.1,1,1.5,1.4s.7.6,1.3,1.2A5.43,5.43,0,0,0,50,71.4,5.18,5.18,0,0,0,53.5,70,221.64,221.64,0,0,0,71.6,51.7,14.35,14.35,0,0,0,75.6,39.1Z" transform="translate(-24.16 -27.72)"/><path d="M42.9,55.9a24.63,24.63,0,0,1,3.8-3.1.93.93,0,0,1,1,.1l.6.4.9.6a3.18,3.18,0,0,0,3.5.2,43.24,43.24,0,0,0,5.5-3.8c2.6-2.6,0-5.2-1.2-6.5-2.3-2.3-4.1-2.1-5.2-1.9s-7.2,2.3-13.9,9-8.8,12.8-9,14c-.1,1-.4,2.8,1.9,5.1a9,9,0,0,0,3.3,2.3,2.2,2.2,0,0,0,.8.1,3.36,3.36,0,0,0,2.4-1.1,30.36,30.36,0,0,0,3.8-5.5,3.18,3.18,0,0,0-.1-3.5,4.23,4.23,0,0,0-.5-.7c-.1-.2-.3-.4-.5-.8a.94.94,0,0,1-.1-1A13.44,13.44,0,0,1,42.9,55.9Zm-5.1,6.2c.2.3.4.5.5.7a5.58,5.58,0,0,1,.5.8.61.61,0,0,1,0,.8,33,33,0,0,1-3.4,4.9c-.5.5-.6.4-.8.4a6.66,6.66,0,0,1-2.2-1.6c-1.4-1.4-1.3-2.3-1.2-3s2.1-6.4,8.3-12.5,11.7-8.1,12.6-8.3c.7-.1,1.5-.2,3,1.2,2.1,2.1,1.7,2.5,1.2,2.9a30.81,30.81,0,0,1-4.9,3.4.61.61,0,0,1-.8,0,6.73,6.73,0,0,0-1.1-.7l-.5-.3a3.29,3.29,0,0,0-3.7-.1,25.81,25.81,0,0,0-7.6,7.6A3.31,3.31,0,0,0,37.8,62.1Z" transform="translate(-24.16 -27.72)"/></svg>