<svg id="Layer_1" data-name="Layer 1" xmlns="http://www.w3.org/2000/svg" viewBox="0 0 58.5 46.92"><title>Flooring</title><path d="M78.77,52.46l-14-9.37h0L61,40.64l3.69-2.46a1.25,1.25,0,0,0,0-2.08l-14-9.37a1.25,1.25,0,0,0-1.39,0l-14,9.37a1.25,1.25,0,0,0,0,2.08L39,40.64l-3.64,2.43h0l-14,9.37a1.25,1.25,0,0,0,0,2.08l14,9.37h0l14,9.34a1.25,1.25,0,0,0,1.39,0l14-9.34h0l14-9.37a1.25,1.25,0,0,0,0-2.08ZM50,29.27l11.79,7.87L50,45,38.21,37.14ZM41.2,42.14l8.1,5.41a1.25,1.25,0,0,0,1.39,0l8.1-5.41,3,2L50,52,38.22,44.13ZM24.2,53.5,36,45.64,47.73,53.5,36,61.36ZM50,70.73,38.22,62.87,50,55l11.78,7.86Zm14-9.37L52.27,53.5,64,45.64,75.83,53.5Z" transform="translate(-20.8 -26.52)"/></svg>