<svg id="Layer_1" data-name="Layer 1" xmlns="http://www.w3.org/2000/svg" viewBox="0 0 31.5 53.55"><title>Fridge</title><path d="M59.62,23.25H40.38a6.14,6.14,0,0,0-6.13,6.13V67.62a6.12,6.12,0,0,0,2.5,4.93v3a1.25,1.25,0,0,0,2.5,0V73.64a6.13,6.13,0,0,0,1.13.11H59.62a6.13,6.13,0,0,0,1.13-.11V75.5a1.25,1.25,0,0,0,2.5,0v-3a6.12,6.12,0,0,0,2.5-4.93V29.38A6.14,6.14,0,0,0,59.62,23.25ZM36.75,29.38a3.64,3.64,0,0,1,3.63-3.63H59.62a3.64,3.64,0,0,1,3.63,3.63V51.25H36.75Zm26.5,38.23a3.64,3.64,0,0,1-3.63,3.63H40.38a3.64,3.64,0,0,1-3.63-3.63V53.75h26.5Z" transform="translate(-34.25 -23.25)"/><path d="M40.5,38.25a1.25,1.25,0,0,0-1.25,1.25v8a1.25,1.25,0,0,0,2.5,0v-8A1.25,1.25,0,0,0,40.5,38.25Z" transform="translate(-34.25 -23.25)"/><path d="M40.5,63.75a1.25,1.25,0,0,0,1.25-1.25v-5a1.25,1.25,0,0,0-2.5,0v5A1.25,1.25,0,0,0,40.5,63.75Z" transform="translate(-34.25 -23.25)"/></svg>