<svg id="Layer_1" data-name="Layer 1" xmlns="http://www.w3.org/2000/svg" viewBox="0 0 60.5 55.77"><title>Garden</title><path d="M79,54.38H70.73v-5.5H73a1.25,1.25,0,0,0,1.25-1.25v-22A1.25,1.25,0,0,0,73,24.38H70.73v-1a1.25,1.25,0,0,0-1.25-1.25H65.83a1.25,1.25,0,0,0-1.25,1.25v1H35.42v-1a1.25,1.25,0,0,0-1.25-1.25H30.52a1.25,1.25,0,0,0-1.25,1.25v1H27a1.25,1.25,0,0,0-1.25,1.25v22A1.25,1.25,0,0,0,27,48.88h2.27v5.5H21a1.25,1.25,0,0,0-1.25,1.25v8A1.25,1.25,0,0,0,21,64.88h2.91V76.65a1.25,1.25,0,0,0,1.25,1.25h3.7a1.25,1.25,0,0,0,1.25-1.25V64.88H69.89V76.65a1.25,1.25,0,0,0,1.25,1.25h3.7a1.25,1.25,0,0,0,1.25-1.25V64.88H79a1.25,1.25,0,0,0,1.25-1.25h0v-8A1.25,1.25,0,0,0,79,54.38Zm-10.77,0H67.08v-5.5h1.15Zm-32.8,0v-5.5H64.58v5.5Zm-7.17-27.5h43.5v8.5H28.25Zm0,11h43.5v8.5H28.25Zm3.52,11h1.15v5.5H31.77ZM27.61,75.4h-1.2V64.88h1.2Zm46,0h-1.2V64.88h1.2Zm4.16-13H22.25V56.9h55.5Z" transform="translate(-19.75 -22.13)"/></svg>