<svg id="Layer_1" data-name="Layer 1" xmlns="http://www.w3.org/2000/svg" viewBox="0 0 45.64 50.13"><title>Geyser</title><path d="M70.54,28.23a9.47,9.47,0,0,0-7.18-3.3H36.65a9.48,9.48,0,0,0-9.37,10.89L32,67a9.42,9.42,0,0,0,9.37,8.06h17.3A9.42,9.42,0,0,0,68,67l4.71-31.18A9.47,9.47,0,0,0,70.54,28.23Zm-31.79-.8h22.5V48a11.25,11.25,0,0,1-22.5,0h0Zm31.5,8-4.7,31.2a6.94,6.94,0,0,1-6.9,5.94H41.35a6.94,6.94,0,0,1-6.9-5.94l-4.7-31.18a7,7,0,0,1,5.91-7.94l.59-.06V48a13.75,13.75,0,0,0,27.5,0V27.46a7,7,0,0,1,6.56,7.41q0,.29-.06.59Z" transform="translate(-27.17 -24.93)"/><path d="M47,45.75h6a1.25,1.25,0,0,0,1.25-1.25v-12A1.25,1.25,0,0,0,53,31.25H47a1.25,1.25,0,0,0-1.25,1.25v12A1.25,1.25,0,0,0,47,45.75Zm1.25-12h3.5v9.5h-3.5Z" transform="translate(-27.17 -24.93)"/><circle cx="17.83" cy="42.07" r="2"/><circle cx="27.83" cy="42.07" r="2"/></svg>