<svg id="Layer_1" data-name="Layer 1" xmlns="http://www.w3.org/2000/svg" viewBox="0 0 51.49 45.49"><title>Intercom</title><circle cx="32.74" cy="24.74" r="1.5"/><circle cx="32.74" cy="29.74" r="1.5"/><circle cx="32.74" cy="34.74" r="1.5"/><circle cx="37.74" cy="24.74" r="1.5"/><circle cx="37.74" cy="29.74" r="1.5"/><circle cx="37.74" cy="34.74" r="1.5"/><circle cx="42.74" cy="24.74" r="1.5"/><circle cx="42.74" cy="29.74" r="1.5"/><circle cx="42.74" cy="34.74" r="1.5"/><path d="M67.5,41.38h-11a1.25,1.25,0,0,0-1.25,1.25v4a1.25,1.25,0,0,0,1.25,1.25h11a1.25,1.25,0,0,0,1.25-1.25v-4A1.25,1.25,0,0,0,67.5,41.38Zm-1.25,4h-8.5v-1.5h8.5Z" transform="translate(-24.26 -27.39)"/><path d="M67.87,35.38H50.66a9.24,9.24,0,0,0-18.31,0h-.21a7.89,7.89,0,0,0-7.88,7.88V65a7.89,7.89,0,0,0,7.88,7.88H67.87A7.89,7.89,0,0,0,75.75,65V43.26A7.89,7.89,0,0,0,67.87,35.38ZM34.75,36.63a6.75,6.75,0,1,1,13.5,0v21.5a6.75,6.75,0,1,1-13.5,0ZM73.25,65a5.39,5.39,0,0,1-5.38,5.38H32.13A5.39,5.39,0,0,1,26.75,65V43.26a5.39,5.39,0,0,1,5.38-5.38h.12V58.13a9.25,9.25,0,0,0,18.5,0V37.88H67.87a5.39,5.39,0,0,1,5.38,5.38Z" transform="translate(-24.26 -27.39)"/></svg>