<svg id="Layer_1" data-name="Layer 1" xmlns="http://www.w3.org/2000/svg" viewBox="0 0 62.5 42.5"><title>Microwave</title><path d="M73.85,28.75H26.15a7.41,7.41,0,0,0-7.4,7.4v27.7a7.41,7.41,0,0,0,7.4,7.4h47.7a7.41,7.41,0,0,0,7.4-7.4V36.15A7.41,7.41,0,0,0,73.85,28.75Zm-52.6,35.1V36.15a4.9,4.9,0,0,1,4.9-4.9h33.6v37.5H26.15a4.9,4.9,0,0,1-4.9-4.9Zm57.5,0a4.9,4.9,0,0,1-4.9,4.9H62.25V31.25h11.6a4.9,4.9,0,0,1,4.9,4.9h0Z" transform="translate(-18.75 -28.75)"/><circle cx="51.75" cy="17.75" r="1.5"/><circle cx="51.75" cy="24.75" r="1.5"/><path d="M54,36.75H27A1.25,1.25,0,0,0,25.75,38V62A1.25,1.25,0,0,0,27,63.25H54A1.25,1.25,0,0,0,55.25,62V38A1.25,1.25,0,0,0,54,36.75Zm-1.25,24H28.25V39.25h24.5Z" transform="translate(-18.75 -28.75)"/></svg>