<svg id="Layer_1" data-name="Layer 1" xmlns="http://www.w3.org/2000/svg" viewBox="0 0 54.5 42.5"><title>Power backup</title><path d="M76,34.75h-.75V30A1.25,1.25,0,0,0,74,28.75H70A1.25,1.25,0,0,0,68.75,30v4.75H66.5a1.25,1.25,0,0,0-1.16.79l-1.69,4.21h-1.4V37A4.25,4.25,0,0,0,58,32.75H42A4.25,4.25,0,0,0,37.75,37v2.75h-1.4l-1.69-4.21a1.25,1.25,0,0,0-1.16-.79H31.25V30A1.25,1.25,0,0,0,30,28.75H26A1.25,1.25,0,0,0,24.75,30v4.75H24A1.25,1.25,0,0,0,22.75,36V70A1.25,1.25,0,0,0,24,71.25H76A1.25,1.25,0,0,0,77.25,70V36A1.25,1.25,0,0,0,76,34.75Zm-4.75-3.5h1.5v3.5h-1.5ZM40.25,37A1.75,1.75,0,0,1,42,35.25H58A1.75,1.75,0,0,1,59.75,37v2.75H40.25Zm-13-5.75h1.5v3.5h-1.5Zm47.5,37.5H25.25V37.25h7.4l1.69,4.21a1.25,1.25,0,0,0,1.16.79h29a1.25,1.25,0,0,0,1.16-.79l1.69-4.21h7.4Z" transform="translate(-22.75 -28.75)"/><path d="M69,53.75H60a1.25,1.25,0,0,0,0,2.5h9a1.25,1.25,0,0,0,0-2.5Z" transform="translate(-22.75 -28.75)"/><path d="M40,53.75H36.75V50.5a1.25,1.25,0,0,0-2.5,0v3.25H31a1.25,1.25,0,0,0,0,2.5h3.25V59.5a1.25,1.25,0,0,0,2.5,0V56.25H40a1.25,1.25,0,0,0,0-2.5Z" transform="translate(-22.75 -28.75)"/></svg>