<svg id="Layer_1" data-name="Layer 1" xmlns="http://www.w3.org/2000/svg" viewBox="0 0 50.68 50.67"><title>Sports</title><path d="M68.8,46.13A10.56,10.56,0,1,0,53.87,31.2l-7.19,7.19h0L22.07,46.54a1.25,1.25,0,0,0-.85,1.32A34.73,34.73,0,0,0,52.14,78.78h.13a1.25,1.25,0,0,0,1.18-.85l8.19-24.58h0ZM55.64,33A8.05,8.05,0,0,1,67,44.36l-6.3,6.3L49.34,39.27ZM23.83,48.59,47.3,40.77l1.58,1.58L25.83,56.18A32.19,32.19,0,0,1,23.83,48.59Zm3,9.88L50.7,44.17l1.68,1.68L32.12,66.11a32.26,32.26,0,0,1-5.27-7.63Zm7,9.4L54.15,47.62l1.68,1.68L41.52,73.15a32.26,32.26,0,0,1-7.63-5.27Zm17.52,8.3a32.19,32.19,0,0,1-7.58-2L57.65,51.12l1.58,1.58Z" transform="translate(-21.21 -28.11)"/><path d="M62.78,35.46a1.25,1.25,0,0,0,1.77-1.77,4.35,4.35,0,0,0-6.15,0,1.25,1.25,0,1,0,1.77,1.77A1.86,1.86,0,0,1,62.78,35.46Z" transform="translate(-21.21 -28.11)"/></svg>