<svg id="Layer_1" data-name="Layer 1" xmlns="http://www.w3.org/2000/svg" viewBox="0 0 62.5 42.5"><title>Stove</title><path d="M73.85,28.75H26.15a7.41,7.41,0,0,0-7.4,7.4v27.7a7.41,7.41,0,0,0,7.4,7.4h47.7a7.41,7.41,0,0,0,7.4-7.4V36.15A7.41,7.41,0,0,0,73.85,28.75Zm-52.6,35.1V36.15a4.9,4.9,0,0,1,4.9-4.9h33.6v37.5H26.15a4.9,4.9,0,0,1-4.9-4.9Zm57.5,0a4.9,4.9,0,0,1-4.9,4.9H62.25V31.25h11.6a4.9,4.9,0,0,1,4.9,4.9h0Z" transform="translate(-18.75 -28.75)"/><path d="M31.5,46.25a4.75,4.75,0,1,0-4.75-4.75h0A4.76,4.76,0,0,0,31.5,46.25Zm0-7a2.25,2.25,0,1,1-2.25,2.25A2.25,2.25,0,0,1,31.5,39.25Z" transform="translate(-18.75 -28.75)"/><path d="M55.25,41.5a6.75,6.75,0,1,0-6.75,6.75h0A6.76,6.76,0,0,0,55.25,41.5Zm-11,0a4.25,4.25,0,1,1,4.25,4.25A4.25,4.25,0,0,1,44.25,41.5Z" transform="translate(-18.75 -28.75)"/><path d="M51.07,53.75a4.75,4.75,0,1,0,4.75,4.75A4.75,4.75,0,0,0,51.07,53.75Zm0,7a2.25,2.25,0,1,1,2.25-2.25A2.25,2.25,0,0,1,51.07,60.75Z" transform="translate(-18.75 -28.75)"/><circle cx="51.75" cy="10.75" r="1.5"/><circle cx="51.75" cy="17.75" r="1.5"/><circle cx="51.75" cy="24.75" r="1.5"/><circle cx="51.75" cy="31.75" r="1.5"/><path d="M34.07,51.75a6.75,6.75,0,1,0,6.75,6.75A6.75,6.75,0,0,0,34.07,51.75Zm0,11a4.25,4.25,0,1,1,4.25-4.25A4.25,4.25,0,0,1,34.07,62.75Z" transform="translate(-18.75 -28.75)"/></svg>