<svg id="Layer_1" data-name="Layer 1" xmlns="http://www.w3.org/2000/svg" viewBox="0 0 54.46 42.58"><title>Swimming pool</title><path d="M76,53.9a1.25,1.25,0,0,0-1.25,1.25,5.24,5.24,0,0,1-10.48,0h0a1.25,1.25,0,0,0-2.5,0,5.24,5.24,0,0,1-10.48,0h0V52.43A7.71,7.71,0,0,0,63,51a7.74,7.74,0,0,0,14.23-4.2,1.25,1.25,0,1,0-2.5,0,5.24,5.24,0,0,1-10.48,0,1.25,1.25,0,0,0-2.5,0,5.24,5.24,0,0,1-10.48,0V36.69a5.49,5.49,0,0,1,5.48-5.49h2a1.25,1.25,0,0,0,0-2.5h-2a8,8,0,0,0-8,8v1.94H38.27V36.69a5.49,5.49,0,0,1,5.48-5.49h2a1.25,1.25,0,0,0,0-2.5h-2a8,8,0,0,0-8,8V46.75a5.24,5.24,0,0,1-10.48,0,1.25,1.25,0,0,0-2.5,0,7.73,7.73,0,0,0,13,5.68v2.72a5.24,5.24,0,0,1-10.48,0h0a1.25,1.25,0,0,0-2.5,0,7.73,7.73,0,0,0,13,5.68v2.68h0a5.24,5.24,0,1,1-10.48,0h0a1.25,1.25,0,0,0-2.5,0A7.73,7.73,0,0,0,37,67.71a7.67,7.67,0,0,0,6,3.57h.52A7.65,7.65,0,0,0,50,67.71a7.67,7.67,0,0,0,6,3.57h.52a7.67,7.67,0,0,0,5.28-2.09,7.77,7.77,0,0,0,2.45-5.65,1.25,1.25,0,0,0-2.5,0,5.24,5.24,0,0,1-5.24,5.24h-.35a5.37,5.37,0,0,1-4.89-5.45v-2.5A7.71,7.71,0,0,0,63,59.36a7.73,7.73,0,0,0,14.23-4.2A1.25,1.25,0,0,0,76,53.9ZM38.3,49.53H48.75V56.2H38.27Zm10.48-8.4V47H38.27V41.1Zm0,22.42a5.24,5.24,0,0,1-5.24,5.24h-.35a5.37,5.37,0,0,1-4.89-5.45V58.7H48.75v4.85Z" transform="translate(-22.77 -28.7)"/></svg>