<svg id="Layer_1" data-name="Layer 1" xmlns="http://www.w3.org/2000/svg" viewBox="0 0 54.5 58.51"><title>TV</title><path d="M70.77,32.75H52.33l9.87-9.87a1.25,1.25,0,0,0-1.77-1.77L50,31.55,39.57,21.12a1.25,1.25,0,0,0-1.77,1.77l9.87,9.87H29.23a6.48,6.48,0,0,0-6.48,6.48V68.77a6.49,6.49,0,0,0,4.5,6.16V78a1.25,1.25,0,0,0,2.5,0V75.25h40.5V78a1.25,1.25,0,0,0,2.5,0V74.94a6.49,6.49,0,0,0,4.5-6.16V39.23a6.48,6.48,0,0,0-6.48-6.48Zm4,36a4,4,0,0,1-4,4H29.23a4,4,0,0,1-4-4V39.23a4,4,0,0,1,4-4H70.77a4,4,0,0,1,4,4Z" transform="translate(-22.75 -20.74)"/><path d="M56.44,38H33.56a5.82,5.82,0,0,0-5.81,5.81V64.16A5.82,5.82,0,0,0,33.55,70H56.44a5.82,5.82,0,0,0,5.81-5.81V43.84A5.82,5.82,0,0,0,56.45,38Zm3.31,26.14a3.31,3.31,0,0,1-3.31,3.31H33.56a3.31,3.31,0,0,1-3.31-3.31V43.84a3.31,3.31,0,0,1,3.31-3.31H56.44a3.31,3.31,0,0,1,3.31,3.31h0Z" transform="translate(-22.75 -20.74)"/><circle cx="45.25" cy="25.26" r="2"/><circle cx="45.25" cy="32.26" r="2"/><circle cx="45.25" cy="39.26" r="2"/></svg>