<svg id="Layer_1" data-name="Layer 1" xmlns="http://www.w3.org/2000/svg" viewBox="0 0 58.48 58.48"><title>Visitor parking</title><path d="M67.85,53.61h-2L62.93,45.9a1.25,1.25,0,0,0-1.17-.8H39a1.25,1.25,0,0,0-1.17.8l-2.94,7.71H32.15a1.25,1.25,0,0,0-1.25,1.25V65.41a1.25,1.25,0,0,0,1.25,1.25h2.44v2a3.24,3.24,0,0,0,6.47,0v-2H58.93v2a3.24,3.24,0,0,0,6.47,0v-2h2.44a1.25,1.25,0,0,0,1.25-1.25V54.86A1.25,1.25,0,0,0,67.85,53.61ZM66.6,64.16H64.16a1.25,1.25,0,0,0-1.25,1.25V68.7a.74.74,0,0,1-1.47,0V65.41a1.25,1.25,0,0,0-1.25-1.25H39.82a1.25,1.25,0,0,0-1.25,1.25V68.7a.74.74,0,0,1-1.47,0V65.41a1.25,1.25,0,0,0-1.25-1.25H33.4v-8h2.4a1.25,1.25,0,0,0,1.17-.8l2.94-7.71h21l2.94,7.71a1.25,1.25,0,0,0,1.17.8H66.6Z" transform="translate(-20.76 -20.76)"/><path d="M42.53,56a3.31,3.31,0,1,0,3.31,3.31A3.31,3.31,0,0,0,42.53,56Zm0,4.12a.81.81,0,1,1,.81-.81.81.81,0,0,1-.81.81h0Z" transform="translate(-20.76 -20.76)"/><path d="M57.47,56a3.31,3.31,0,1,0,3.31,3.31A3.31,3.31,0,0,0,57.47,56Zm0,4.12a.81.81,0,1,1,.81-.81.81.81,0,0,1-.81.81h0Z" transform="translate(-20.76 -20.76)"/><path d="M43.75,41.09a6.52,6.52,0,0,0,6.39-5.26h4.2v2a1.25,1.25,0,0,0,2.5,0v-2h.87v3.35a1.25,1.25,0,0,0,2.5,0V35.83h1.3a1.25,1.25,0,1,0,0-2.5H50.14a6.51,6.51,0,1,0-6.39,7.76Zm0-10.52a4,4,0,1,1-4,4A4,4,0,0,1,43.75,30.57Z" transform="translate(-20.76 -20.76)"/><path d="M65.54,20.76H34.46a13.72,13.72,0,0,0-13.7,13.7V65.54a13.72,13.72,0,0,0,13.7,13.7H65.54a13.72,13.72,0,0,0,13.7-13.7V34.46A13.72,13.72,0,0,0,65.54,20.76Zm11.2,44.77a11.21,11.21,0,0,1-11.2,11.2H34.46a11.21,11.21,0,0,1-11.2-11.2V34.46a11.21,11.21,0,0,1,11.2-11.2H65.54a11.21,11.21,0,0,1,11.2,11.2Z" transform="translate(-20.76 -20.76)"/></svg>