<svg id="Layer_1" data-name="Layer 1" xmlns="http://www.w3.org/2000/svg" viewBox="0 0 51.5 57.5"><title>Washing Machine</title><path d="M74.5,21.25h-49a1.25,1.25,0,0,0-1.25,1.25v55a1.25,1.25,0,0,0,1.25,1.25h49a1.25,1.25,0,0,0,1.25-1.25v-55A1.25,1.25,0,0,0,74.5,21.25Zm-47.75,2.5h46.5v13.5H26.75Zm0,52.5V39.75h46.5v36.5Z" transform="translate(-24.25 -21.25)"/><path d="M50,45.75A12.25,12.25,0,1,0,62.25,58h0A12.26,12.26,0,0,0,50,45.75Zm0,2.5a9.76,9.76,0,0,1,9.75,9.69,1.21,1.21,0,0,0-.34-.07c-.1,0-.22-.13-.54-.59a2.85,2.85,0,0,0-5.18,0c-.32.46-.44.59-.54.59s-.22-.13-.54-.59a2.86,2.86,0,0,0-5.19,0c-.32.46-.44.59-.54.59s-.22-.12-.55-.59a2.86,2.86,0,0,0-5.19,0c-.33.47-.44.59-.55.59a1.21,1.21,0,0,0-.34.07A9.76,9.76,0,0,1,50,48.25Zm0,19.5a9.76,9.76,0,0,1-9.45-7.39h0a3.13,3.13,0,0,0,2.59-1.66c.33-.47.44-.59.54-.59s.22.12.55.59a2.86,2.86,0,0,0,5.19,0c.32-.46.44-.59.54-.59s.22.13.54.59a2.86,2.86,0,0,0,5.18,0c.32-.46.44-.59.54-.59s.22.13.54.59a3.13,3.13,0,0,0,2.59,1.66h0A9.76,9.76,0,0,1,50,67.75Z" transform="translate(-24.25 -21.25)"/><circle cx="42.25" cy="9.25" r="2"/></svg>