<svg id="Layer_1" data-name="Layer 1" xmlns="http://www.w3.org/2000/svg" viewBox="0 0 41.7 50.5"><title>Water purifier</title><path d="M69.6,24.75H30.4A1.25,1.25,0,0,0,29.15,26V74a1.25,1.25,0,0,0,1.25,1.25H69.6A1.25,1.25,0,0,0,70.85,74V26A1.25,1.25,0,0,0,69.6,24.75Zm-1.25,2.5v37.5h-8.1V42.5a10.25,10.25,0,0,0-20.5,0V64.75h-8.1V27.25Zm-22,26h7.4l-.42,4.93a2.79,2.79,0,0,1-2.3-.31,6,6,0,0,0-4.32-.46ZM46.88,60a3.42,3.42,0,0,1,3.12.2,6.37,6.37,0,0,0,2.55.66H53l-.34,4H47.29Zm9.43-7.87a1.25,1.25,0,0,0-1.14-1.36H44.94A1.25,1.25,0,0,0,43.69,52s0,.08,0,.11l1.08,12.64H42.25V42.5a7.75,7.75,0,0,1,4.5-7V44A1.25,1.25,0,0,0,48,45.25h4A1.25,1.25,0,0,0,53.25,44V35.47a7.75,7.75,0,0,1,4.5,7V64.75H55.22ZM49.25,35.25h1.5v7.5h-1.5Zm19.1,37.5H31.65v-5.5h36.7Z" transform="translate(-29.15 -24.75)"/><path d="M58,32.25h5a1.25,1.25,0,0,0,0-2.5H58a1.25,1.25,0,0,0,0,2.5Z" transform="translate(-29.15 -24.75)"/></svg>